<svg width="28" height="28" viewBox="0 0 18 18" fill="none" xmlns="http://www.w3.org/2000/svg">
<path d="M11.0769 7.92383L13.6731 7.92383" stroke="white" stroke-linecap="round" stroke-linejoin="round"/>
<path d="M11.0769 12.5391L13.6731 12.5391" stroke="white" stroke-linecap="round" stroke-linejoin="round"/>
<path d="M3.64904 2.29883H15.3317C15.5039 2.29883 15.669 2.36721 15.7907 2.48893C15.9124 2.61065 15.9808 2.77573 15.9808 2.94787V15.2796C15.9808 15.796 15.7756 16.2913 15.4105 16.6564C15.0453 17.0216 14.5501 17.2267 14.0337 17.2267H4.94712C4.43071 17.2267 3.93545 17.0216 3.5703 16.6564C3.20514 16.2913 3 15.796 3 15.2796V2.94787C3 2.77573 3.06838 2.61065 3.1901 2.48893C3.31182 2.36721 3.4769 2.29883 3.64904 2.29883V2.29883Z" stroke="white" stroke-linecap="round" stroke-linejoin="round"/>
<path d="M5.59616 1V3.59615" stroke="white" stroke-linecap="round" stroke-linejoin="round"/>
<path d="M9.49039 1V3.59615" stroke="white" stroke-linecap="round" stroke-linejoin="round"/>
<path d="M13.3846 1V3.59615" stroke="white" stroke-linecap="round" stroke-linejoin="round"/>
<path d="M8.64573 6.72656L6.91496 8.45733L6.04958 7.59195" stroke="white" stroke-linecap="round" stroke-linejoin="round"/>
<path d="M8.39852 12.2502L6.17325 14.4754" stroke="white" stroke-linecap="round" stroke-linejoin="round"/>
<path d="M8.39852 14.4754L6.17325 12.2502" stroke="white" stroke-linecap="round" stroke-linejoin="round"/>
</svg>
