<svg width="30" height="30" viewBox="0 0 18 18" fill="none" xmlns="http://www.w3.org/2000/svg">
<path fill-rule="evenodd" clip-rule="evenodd" d="M2.35355 2.35355C2.49906 2.20805 2.65038 2.11751 2.77648 2.06394C2.83965 2.03711 2.8947 2.02033 2.93708 2.0106C2.97492 2.00191 2.996 2.00034 2.99976 2.00006C3.00048 2.00001 3.00056 2 3 2H12.933L12.9329 2.00003C12.9329 2.0001 12.9339 2.00025 12.9358 2.00055C12.9435 2.00173 12.9665 2.00524 13.0065 2.01551C13.0636 2.03017 13.1365 2.05375 13.2162 2.08679C13.381 2.1551 13.5405 2.2495 13.6495 2.35662C13.7789 2.48376 13.9089 2.66219 14.0064 2.83169C14.0545 2.91514 14.0895 2.98761 14.1109 3.04107C14.1179 3.05845 14.1223 3.07105 14.125 3.07933V8.49414H15.125V3.0449C15.125 2.89958 15.0747 2.75777 15.0392 2.66917C14.9965 2.56253 14.939 2.44721 14.8732 2.33289C14.7431 2.10686 14.5606 1.84986 14.3505 1.64338C14.12 1.41689 13.8362 1.26129 13.5991 1.163C13.3766 1.07077 13.1242 1 12.9394 1H3C2.68692 1 2.12558 1.16731 1.64645 1.64645C1.16731 2.12558 1 2.68692 1 3V14.625C1 15.2798 1.2601 15.9077 1.72308 16.3707C2.18606 16.8336 2.814 17.0938 3.46875 17.0938H7.5V16.0937H3.46875C3.07921 16.0937 2.70563 15.939 2.43019 15.6636C2.15474 15.3881 2 15.0145 2 14.625V3C2 3.00056 2.00001 3.00048 2.00006 2.99976C2.00034 2.996 2.00191 2.97492 2.0106 2.93708C2.02033 2.8947 2.03711 2.83965 2.06394 2.77648C2.11751 2.65038 2.20805 2.49906 2.35355 2.35355Z" fill="white"/>
<path d="M12.5 14.7441C11.1193 14.7441 10 13.6249 10 12.2441C10 10.8634 11.1193 9.74414 12.5 9.74414C13.8807 9.74414 15 10.8634 15 12.2441C15 13.6249 13.8807 14.7441 12.5 14.7441Z" stroke="white" stroke-miterlimit="10"/>
<path d="M16.2891 16.932C15.9051 16.2668 15.3528 15.7144 14.6877 15.3304C14.0225 14.9463 13.268 14.7441 12.5 14.7441C11.732 14.7441 10.9775 14.9463 10.3123 15.3304C9.6472 15.7144 9.0949 16.2668 8.71094 16.932" stroke="white" stroke-linecap="round" stroke-linejoin="round"/>
<path d="M4.5 4.49414L11.5 4.49414" stroke="white" stroke-linecap="round" stroke-linejoin="round"/>
<path d="M4.5 7.49414L8.5 7.49414" stroke="white" stroke-linecap="round" stroke-linejoin="round"/>
<path d="M4.5 10.4941L6.5 10.4941" stroke="white" stroke-linecap="round" stroke-linejoin="round"/>
</svg>
