<svg width="30" height="30" viewBox="0 0 19 19" fill="none" xmlns="http://www.w3.org/2000/svg">
<path fill-rule="evenodd" clip-rule="evenodd" d="M13.5357 16.7515C12.0348 16.7515 10.8142 15.5309 10.8142 14.0301C10.8142 12.5292 12.0348 11.3086 13.5357 11.3086C15.0366 11.3086 16.2571 12.5292 16.2571 14.0301C16.2571 15.5309 15.0366 16.7515 13.5357 16.7515V16.7515ZM18.0715 14.9371V13.1228H17.0451C16.939 12.7141 16.7675 12.3317 16.5357 11.992L17.2243 11.3035L16.2622 10.3414L15.5737 11.03C15.234 10.7982 14.8516 10.6272 14.4429 10.5206V9.49414H12.6286V10.5206C12.2199 10.6272 11.8376 10.7982 11.4978 11.03L10.8093 10.3414L9.84728 11.3035L10.5358 11.992C10.304 12.3317 10.1326 12.7141 10.0264 13.1228H9V14.9371H10.0264C10.1326 15.3462 10.304 15.7281 10.5358 16.0678L9.84728 16.7564L10.8093 17.7184L11.4978 17.0303C11.8376 17.2616 12.2199 17.4331 12.6286 17.5392V18.5657H14.4429V17.5392C14.8516 17.4331 15.234 17.2616 15.5737 17.0303L16.2622 17.7184L17.2243 16.7564L16.5357 16.0678C16.7675 15.7281 16.939 15.3462 17.0451 14.9371H18.0715Z" fill="white"/>
<path fill-rule="evenodd" clip-rule="evenodd" d="M2.35355 2.35355C2.49906 2.20805 2.65038 2.11751 2.77648 2.06394C2.83965 2.03711 2.8947 2.02033 2.93708 2.0106C2.97492 2.00191 2.996 2.00034 2.99976 2.00006C3.00048 2.00001 3.00056 2 3 2H12.933L12.9329 2.00003C12.9329 2.0001 12.9339 2.00025 12.9358 2.00055C12.9435 2.00173 12.9665 2.00524 13.0065 2.01551C13.0636 2.03017 13.1365 2.05375 13.2162 2.08679C13.381 2.1551 13.5405 2.2495 13.6495 2.35662C13.7789 2.48376 13.9089 2.66219 14.0064 2.83169C14.0545 2.91514 14.0895 2.98761 14.1109 3.04107C14.1179 3.05845 14.1223 3.07105 14.125 3.07933V8.49414H15.125V3.0449C15.125 2.89958 15.0747 2.75777 15.0392 2.66917C14.9965 2.56253 14.939 2.44721 14.8732 2.33289C14.7431 2.10686 14.5606 1.84986 14.3505 1.64338C14.12 1.41689 13.8362 1.26129 13.5991 1.163C13.3766 1.07077 13.1242 1 12.9394 1H3C2.68692 1 2.12558 1.16731 1.64645 1.64645C1.16731 2.12558 1 2.68692 1 3V14.625C1 15.2798 1.2601 15.9077 1.72308 16.3707C2.18606 16.8336 2.814 17.0938 3.46875 17.0938H7.5V16.0937H3.46875C3.07921 16.0937 2.70563 15.939 2.43019 15.6636C2.15474 15.3881 2 15.0145 2 14.625V3C2 3.00056 2.00001 3.00048 2.00006 2.99976C2.00034 2.996 2.00191 2.97492 2.0106 2.93708C2.02033 2.8947 2.03711 2.83965 2.06394 2.77648C2.11751 2.65038 2.20805 2.49906 2.35355 2.35355Z" fill="white"/>
<path d="M4.5 4.49414L11.5 4.49414" stroke="white" stroke-linecap="round" stroke-linejoin="round"/>
<path d="M4.5 7.49414L8.5 7.49414" stroke="white" stroke-linecap="round" stroke-linejoin="round"/>
<path d="M4.5 10.4941L6.5 10.4941" stroke="white" stroke-linecap="round" stroke-linejoin="round"/>
</svg>
