<svg width="30" height="30" viewBox="0 0 18 18" fill="none" xmlns="http://www.w3.org/2000/svg">
<path d="M10.0002 15C6.13421 15 3.00022 11.866 3.00022 8C3.00022 4.13403 6.13421 1.00004 10.0002 1.00004C13.8661 1.00004 17.0001 4.13403 17.0001 8C17.0001 11.866 13.8661 15 10.0002 15Z" stroke="white" stroke-linecap="round" stroke-linejoin="round"/>
<path d="M5.05011 12.9493L1.00013 16.9992" stroke="white" stroke-linecap="round" stroke-linejoin="round"/>
<path d="M9.88952 9.2218C8.66222 9.2218 7.66731 8.22688 7.66731 6.99959C7.66731 5.7723 8.66222 4.77738 9.88952 4.77738C11.1168 4.77738 12.1117 5.7723 12.1117 6.99959C12.1117 8.22688 11.1168 9.2218 9.88952 9.2218Z" stroke="white" stroke-miterlimit="10"/>
<path d="M13.1485 11.3708C13.1485 10.1857 12.4251 10.0852 11.8338 9.74379C11.2426 9.40242 10.572 9.22269 9.88926 9.22269C9.20656 9.22269 8.53589 9.40242 7.94467 9.74379C7.35345 10.0852 6.63002 10.1857 6.63002 11.3708" stroke="white" stroke-linecap="round" stroke-linejoin="round"/>
</svg>
