<svg width="30" height="30" viewBox="0 0 18 18" fill="none" xmlns="http://www.w3.org/2000/svg">
<path fill-rule="evenodd" clip-rule="evenodd" d="M2.35355 1.35355C2.49906 1.20805 2.65038 1.11751 2.77648 1.06394C2.83965 1.03711 2.8947 1.02033 2.93708 1.0106C2.97492 1.00191 2.996 1.00034 2.99976 1.00006C3.00048 1.00001 3.00056 1 3 1H12.933L12.9329 1.00003C12.9329 1.0001 12.9339 1.00025 12.9358 1.00055C12.9435 1.00173 12.9665 1.00524 13.0065 1.01551C13.0636 1.03017 13.1365 1.05375 13.2162 1.08679C13.381 1.1551 13.5405 1.2495 13.6495 1.35662C13.7789 1.48376 13.9089 1.66219 14.0064 1.83169C14.0545 1.91514 14.0895 1.98761 14.1109 2.04107C14.1179 2.05845 14.1223 2.07105 14.125 2.07933V7.49414H15.125V2.0449C15.125 1.89958 15.0747 1.75777 15.0392 1.66917C14.9965 1.56253 14.939 1.44721 14.8732 1.33289C14.7431 1.10686 14.5606 0.849859 14.3505 0.643382C14.12 0.416887 13.8362 0.261286 13.5991 0.163C13.3766 0.0707683 13.1242 0 12.9394 0H3C2.68692 0 2.12558 0.167312 1.64645 0.646447C1.16731 1.12558 1 1.68692 1 2V13.625C1 14.2798 1.2601 14.9077 1.72308 15.3707C2.18606 15.8336 2.814 16.0938 3.46875 16.0938H7.5V15.0937H3.46875C3.07921 15.0937 2.70563 14.939 2.43019 14.6636C2.15474 14.3881 2 14.0145 2 13.625V2C2 2.00056 2.00001 2.00048 2.00006 1.99976C2.00034 1.996 2.00191 1.97492 2.0106 1.93708C2.02033 1.8947 2.03711 1.83965 2.06394 1.77648C2.11751 1.65038 2.20805 1.49906 2.35355 1.35355Z" fill="white"/>
<path d="M11.9832 16.7756H10.0625C9.97133 16.7756 9.8839 16.7394 9.81943 16.6749C9.75497 16.6104 9.71875 16.523 9.71875 16.4318V14.5111C9.7186 14.4665 9.72724 14.4223 9.7442 14.381C9.76116 14.3397 9.7861 14.3022 9.81758 14.2705L14.9738 9.11427C15.0058 9.08179 15.0439 9.056 15.086 9.03839C15.128 9.02079 15.1732 9.01172 15.2188 9.01172C15.2643 9.01172 15.3095 9.02079 15.3515 9.03839C15.3936 9.056 15.4317 9.08179 15.4637 9.11427L17.3801 11.0307C17.4126 11.0627 17.4384 11.1008 17.456 11.1428C17.4736 11.1849 17.4826 11.23 17.4826 11.2756C17.4826 11.3212 17.4736 11.3663 17.456 11.4084C17.4384 11.4504 17.4126 11.4885 17.3801 11.5205L12.2238 16.6768C12.1922 16.7083 12.1546 16.7332 12.1134 16.7501C12.0721 16.7671 12.0278 16.7758 11.9832 16.7756V16.7756Z" stroke="white" stroke-linecap="round" stroke-linejoin="round"/>
<path d="M13.8438 10.2441L16.25 12.6504" stroke="white" stroke-linecap="round" stroke-linejoin="round"/>
<path d="M4.5 3.49414L11.5 3.49414" stroke="white" stroke-linecap="round" stroke-linejoin="round"/>
<path d="M4.5 6.49414L8.5 6.49414" stroke="white" stroke-linecap="round" stroke-linejoin="round"/>
<path d="M4.5 9.49414L6.5 9.49414" stroke="white" stroke-linecap="round" stroke-linejoin="round"/>
</svg>
