<svg xmlns="http://www.w3.org/2000/svg" width="30" height="30" viewBox="0 0 18 18" fill="none">
<path d="M9 5.625V9" stroke="white" stroke-linecap="round" stroke-linejoin="round"/>
<path d="M11.925 10.6875L9 9" stroke="white" stroke-linecap="round" stroke-linejoin="round"/>
<path d="M5.04834 7.00977H2.23584V4.19727" stroke="white" stroke-linecap="round" stroke-linejoin="round"/>
<path d="M4.62656 13.3734C5.49169 14.2393 6.59419 14.8291 7.79459 15.0682C8.99498 15.3074 10.2393 15.1852 11.3703 14.717C12.5012 14.2488 13.4678 13.4558 14.1479 12.4381C14.828 11.4205 15.1911 10.224 15.1911 9C15.1911 7.77601 14.828 6.57952 14.1479 5.56188C13.4678 4.54424 12.5012 3.75118 11.3703 3.28301C10.2393 2.81484 8.99498 2.6926 7.79459 2.93176C6.59419 3.17092 5.49169 3.76072 4.62656 4.62656L2.23593 7.01016" stroke="white" stroke-linecap="round" stroke-linejoin="round"/>
</svg>
