<svg width="25" height="25" viewBox="0 0 19 19" fill="none" xmlns="http://www.w3.org/2000/svg">
<circle cx="8.08824" cy="4.16667" r="3.56667" stroke="white" stroke-width="1.2"/>
<path fill-rule="evenodd" clip-rule="evenodd" d="M6.50003 10.6001L7.34483 10.6H7.34564C7.70363 10.5999 8.01709 10.5999 8.51672 10.6L8.51698 9.4C8.01686 9.39989 7.70288 9.39994 7.34432 9.4L6.50003 9.40008C2.85036 9.40008 0.000183105 12.4805 0.000183105 16.6667V17.2667H0.600183H7.90065V16.0667H1.22265C1.47304 12.7644 3.78311 10.6001 6.50003 10.6001Z" fill="white"/>
<path fill-rule="evenodd" clip-rule="evenodd" d="M13.5167 16.5304C11.9803 16.5304 10.731 15.281 10.731 13.7447C10.731 12.2084 11.9803 10.959 13.5167 10.959C15.053 10.959 16.3024 12.2084 16.3024 13.7447C16.3024 15.281 15.053 16.5304 13.5167 16.5304V16.5304ZM18.1596 14.6769V12.8198H17.1089C17.0003 12.4014 16.8248 12.01 16.5875 11.6623L17.2923 10.9575L16.3076 9.97275L15.6028 10.6775C15.255 10.4403 14.8637 10.2653 14.4453 10.1561V9.10547H12.5882V10.1561C12.1699 10.2653 11.7785 10.4403 11.4307 10.6775L10.7259 9.97275L9.74119 10.9575L10.446 11.6623C10.2087 12.01 10.0332 12.4014 9.92458 12.8198H8.8739V14.6769H9.92458C10.0332 15.0957 10.2087 15.4866 10.446 15.8344L9.74119 16.5391L10.7259 17.5239L11.4307 16.8196C11.7785 17.0564 12.1699 17.2319 12.5882 17.3405V18.3912H14.4453V17.3405C14.8637 17.2319 15.255 17.0564 15.6028 16.8196L16.3076 17.5239L17.2923 16.5391L16.5875 15.8344C16.8248 15.4866 17.0003 15.0957 17.1089 14.6769H18.1596Z" fill="white"/>
</svg>
